<svg width="20" height="20" viewBox="0 0 20 20" fill="none" xmlns="http://www.w3.org/2000/svg">
<path d="M9.19756 11.1532L8.93888 10.557L8.55228 10.0355L8.34844 9.87167L8.09592 9.66867L7.95152 9.58575L6.99472 9.03699L6.88496 8.97387L6.4274 8.71143L4.75892 7.75467L3.94696 7.28883L3.50632 7.03595L3.09084 6.79787L2.63452 6.64111L2.24752 6.71867L2.00572 6.99923L1.98924 7.01863L1.89844 7.49511V13.2932L1.98924 13.8742L2.24752 14.4703L2.5392 14.8635L2.63452 14.9918L2.68568 15.033L3.09084 15.3586L4.75896 16.3154L6.42744 17.2726L8.09596 18.2294L8.55232 18.3862L8.93892 18.3086L9.1976 18.0086L9.2884 17.5321V11.7342L9.25872 11.5448L9.19756 11.1532ZM4.17432 14.5484L4.14136 14.6045L4.05716 14.7477L3.8748 14.8546L3.6446 14.8582L3.3896 14.7588L3.1342 14.5658L2.9044 14.298L2.72164 13.9819L2.60444 13.6477L2.56404 13.3292L2.60444 13.0569L2.72164 12.8576L2.9044 12.7507L3.07808 12.7478L3.1342 12.747L3.3896 12.8465L3.50636 12.9348L3.64456 13.0396L3.87476 13.3073L4.05712 13.6238L4.17428 13.9576L4.20232 14.1788L4.21472 14.2762L4.17432 14.5484ZM4.17432 9.44223L4.14136 9.49871L4.05716 9.64147L3.8748 9.74835L3.6446 9.75247L3.41108 9.66127L3.3896 9.65259L3.1342 9.45951L2.9044 9.19175L2.72164 8.87567L2.60444 8.54147L2.56404 8.22299L2.60444 7.95067L2.72164 7.75139L2.9044 7.64451L3.07808 7.64163L3.1342 7.64083L3.3896 7.74023L3.41108 7.75675L3.6446 7.93335L3.76176 8.06991L3.8748 8.20107L4.05716 8.51755L4.1244 8.70899L4.17432 8.85135L4.2148 9.16983L4.17432 9.44223ZM6.37836 13.2595L6.34536 13.3156L6.2612 13.4588L6.0784 13.5656L5.8486 13.5694L5.72072 13.5198L5.5932 13.4699L5.52636 13.4196L5.33824 13.2768L5.108 13.009L4.92568 12.6926L4.80848 12.3588L4.78828 12.1996L4.76808 12.0403L4.80812 11.768L4.92572 11.5687L5.10804 11.4618L5.28212 11.459L5.33828 11.4582L5.46576 11.5077L5.59324 11.5576L5.729 11.6599L5.84864 11.7507L6.07844 12.0184L6.26124 12.3349L6.3784 12.6687L6.3986 12.828L6.40932 12.9129L6.41884 12.9872L6.37836 13.2595ZM8.5824 17.0767L8.549 17.1328L8.4648 17.276L8.28248 17.3828L8.05224 17.3866L7.79728 17.2871L7.54228 17.094L7.31208 16.8263L7.12928 16.5098L7.01212 16.176L6.97168 15.8575L7.01212 15.5852L7.12928 15.3856L7.31208 15.2791L7.4862 15.2762L7.54232 15.275L7.79732 15.3748L8.05228 15.5679L8.28252 15.8356L8.46484 16.1517L8.58244 16.4855L8.62292 16.8044L8.5824 17.0767ZM8.5824 11.9706L8.549 12.0266L8.4648 12.1698L8.28248 12.2767L8.05224 12.2804L7.79728 12.181L7.749 12.1447L7.54232 11.9879L7.31212 11.7201L7.12932 11.4037L7.01216 11.0699L6.9948 10.9341L6.97172 10.7514L7.01216 10.479L7.12932 10.2798L7.31212 10.1729L7.48624 10.17L7.54236 10.1688L7.79736 10.2686L7.95164 10.3854L8.05232 10.4617L8.28256 10.7294L8.46488 11.0455L8.58248 11.3793L8.61628 11.647L8.62292 11.6982L8.5824 11.9706Z" fill="url(#paint0_linear_4_548)"/>
<path d="M11.1927 8.43418L11.385 8.32362L13.1509 7.31074L13.5919 7.05782L13.6266 7.03802L13.7635 6.95922L15.3578 6.04494L15.7984 5.79202L16.1978 5.56346L16.5634 5.24946L16.6917 4.87938L16.5634 4.50926L16.1978 4.1953L14.5293 3.23846L12.8608 2.28126L11.1927 1.32446L10.7302 1.1475L10.6456 1.11486L10.186 1.06246L9.99991 1.04102L9.52295 1.0955L9.35463 1.11486L8.80755 1.32446L6.42855 2.68934L6.18183 2.83082L3.80243 4.19526L3.43691 4.50922L3.30859 4.87934L3.43691 5.24942L3.80243 5.56342L4.20139 5.79198L4.38047 5.8947L4.64247 6.0449L5.47095 6.52018L7.13947 7.47698L8.61527 8.32362L8.80755 8.43418L9.06171 8.53158L9.35463 8.64378L9.99991 8.71726L10.6456 8.64378L10.9386 8.53158L11.1927 8.43418ZM13.2548 4.77454L13.3679 4.57526L13.5824 4.4057L13.8778 4.28274L14.2252 4.21794H14.5904L14.9378 4.28274L15.2332 4.4057L15.4481 4.57526L15.5608 4.77454V4.98414L15.4754 5.13474L15.4481 5.18342L15.2332 5.35258L14.9378 5.47594L14.5904 5.5407H14.2252L13.8778 5.47594L13.5824 5.35258L13.3679 5.18342L13.3402 5.13474L13.2548 4.98414V4.77454ZM6.74539 4.9841L6.65999 5.1347L6.63235 5.18338L6.41779 5.35254L6.12239 5.4759L5.77499 5.54066H5.40983L5.09875 5.4825L5.06243 5.4759L4.76703 5.35254L4.56815 5.19618L4.55207 5.18338L4.52443 5.1347L4.43943 4.9841V4.7745L4.55207 4.57522L4.76703 4.40566L5.06243 4.2827L5.40983 4.2179H5.77499L6.12239 4.2827L6.14467 4.29174L6.41783 4.40562L6.63239 4.57518L6.64435 4.59622L6.74543 4.77446L6.74539 4.9841ZM8.84715 2.24618L8.95979 2.0473L9.17471 1.87774L9.47011 1.75438L9.81751 1.68962H10.1826L10.5301 1.75438L10.8255 1.87774L11.04 2.0473L11.153 2.24618V2.45578L11.0676 2.60638L11.04 2.65506L10.8255 2.82462L10.7128 2.87166L10.5301 2.94754L10.1826 3.01234H9.81751L9.47011 2.94754L9.28735 2.87166L9.17471 2.82462L8.95979 2.65506L8.93255 2.60638L8.84715 2.45578V2.24618ZM10.7129 7.92794L10.5301 8.00386L10.1827 8.06862H9.81755L9.47015 8.00386L9.28739 7.92794L9.17475 7.8809L8.95983 7.71134L8.93259 7.66262L8.84719 7.51206V7.30286L8.95983 7.10358L9.17475 6.93402L9.47015 6.81106L9.81755 6.74626H10.1827L10.5301 6.81106L10.8255 6.93402L11.04 7.10358L11.1531 7.30286V7.51206L11.0677 7.66262L11.04 7.71134L10.8255 7.8809L10.7129 7.92794Z" fill="url(#paint1_linear_4_548)"/>
<path d="M18.2014 13.3896L18.2043 13.374L18.2113 13.3422L18.2224 13.2877L18.2542 12.8842V7.08612L18.2179 6.60008L18.161 6.3744L18.104 6.14916L17.9567 5.78484L17.75 5.4036L17.4707 5.03848L17.1311 4.69024L16.7453 4.35972L16.6294 4.27268L14.9613 3.31592L13.2928 2.35872L11.6247 1.40192L11.4923 1.34416L11.012 1.17664L10.54 1.05824L10.0833 1L9.64881 1.0124L9.26141 1.0644L9.03737 1.12836L8.81373 1.19192L8.37557 1.40192L5.99661 2.7668L5.74989 2.90788L3.37049 4.27272L3.02353 4.5116L3.00989 4.52068L2.94221 4.58668L2.59193 4.8986L2.18389 5.4618L1.89961 6.098L1.79809 6.57944L1.78201 6.64752L1.77993 6.66528L1.77621 6.7144L1.74609 7.08616V12.8842L1.76305 13.0266L1.78205 13.3707L1.83897 13.596L1.89589 13.8216L2.10505 14.266L2.25029 14.5672L2.52961 14.9323L2.86877 15.2806L3.25493 15.611L3.37049 15.6981L5.03901 16.6549L6.70753 17.6116L8.37561 18.5688L8.74157 18.7438L8.75681 18.7492L8.77205 18.7545L8.78449 18.7578L9.30761 18.929L9.99993 19L10.6927 18.929L11.2159 18.7582L11.2282 18.7545L11.2435 18.7492L11.3277 18.7091L11.6247 18.5688L14.0586 17.1726L14.1955 17.0938L16.6294 15.698L16.99 15.45L17.0605 15.384L17.4083 15.0721L17.8164 14.5085L18.1007 13.8727L18.2014 13.3896ZM9.28741 12.043V17.532L9.19661 18.0086L8.93793 18.3085L8.55133 18.3861L8.09497 18.2293L6.42645 17.2725L4.75797 16.3153L3.08985 15.3585L2.68469 15.033L2.63353 14.9917L2.53821 14.8634L2.24653 14.4702L1.98825 13.8741L1.89745 13.2932V7.49504L1.98825 7.01856L2.00473 6.99916L2.24653 6.7186L2.63353 6.64104L3.08985 6.7978L3.50533 7.03588L3.94597 7.28876L4.75793 7.7546L6.42641 8.71136L6.88397 8.9738L6.99373 9.03692L7.95053 9.58568L8.09493 9.6686L8.34745 9.8716L8.55129 10.0354L8.93789 10.5569L9.19657 11.1531L9.25765 11.5447L9.28733 11.734V12.043H9.28741ZM10.6457 8.6436L9.99997 8.71708L9.35469 8.6436L9.06177 8.5314L8.80761 8.434L8.61533 8.32344L7.13953 7.4768L5.47101 6.52L4.64253 6.04472L4.38053 5.89452L4.20145 5.7918L3.80249 5.56324L3.43697 5.24924L3.30865 4.87916L3.43697 4.50904L3.80249 4.19508L6.18189 2.83064L6.42861 2.68916L8.80761 1.32428L9.35469 1.11468L9.52301 1.09532L9.99997 1.04084L10.1861 1.06228L10.6457 1.11468L10.7303 1.14732L11.1928 1.32428L12.8609 2.28108L14.5294 3.23828L16.1979 4.19504L16.5635 4.509L16.6918 4.87912L16.5635 5.2492L16.1979 5.5632L15.7985 5.79176L15.3579 6.04468L13.7636 6.95896L13.6266 7.03776L13.592 7.05756L13.1509 7.31048L11.385 8.32336L11.1928 8.43392L10.9386 8.53132L10.6457 8.6436ZM17.7537 14.4702L17.3667 14.9917L16.9104 15.3585L16.2259 15.7513L16.2218 15.7534L14.4761 16.7547L14.3396 16.8331L11.9053 18.2293L11.449 18.3861L11.4251 18.3812L11.062 18.3086L10.8037 18.0086L10.7129 17.5321V11.734L10.7427 11.5446L10.8037 11.153L11.062 10.5568L11.449 10.0354L11.6528 9.87152L11.9053 9.66852L12.0497 9.5856L13.8317 8.56364L14.2723 8.31072L14.3395 8.27236L14.4761 8.19396L16.0543 7.28872L16.4949 7.03584L16.9104 6.79776L17.3667 6.641L17.7537 6.71856L18.012 7.01852L18.1027 7.495V13.2932L18.012 13.8741L17.7537 14.4702Z" fill="url(#paint2_linear_4_548)"/>
<path d="M18.1027 10.4736V7.49511L18.0119 7.01863L17.7536 6.71867L17.3666 6.64111L16.9103 6.79787L16.4948 7.03595L16.0542 7.28883L14.4761 8.19407L14.3395 8.27247L14.2722 8.31083L13.8316 8.56375L12.0497 9.58571L11.9053 9.66863L11.6528 9.87163L11.449 10.0355L11.0619 10.557L10.8036 11.1532L10.7426 11.5447L10.7129 11.7341V17.5322L10.8036 18.0087L11.0619 18.3086L11.425 18.3812L11.449 18.3862L11.9053 18.2294L14.3395 16.8332L14.4761 16.7548L16.2217 15.7534L16.2259 15.7514L16.9104 15.3586L17.3667 14.9918L17.7537 14.4702L18.012 13.8741L18.1027 13.2932V10.4736H18.1027ZM15.1927 12.3587L15.0755 12.6925L14.8927 13.009L14.6629 13.2767L14.6044 13.3213L14.4666 13.4252L14.408 13.4698L14.1526 13.5692L13.9227 13.5655L13.74 13.4587L13.6558 13.3155L13.6228 13.2594L13.6133 13.1966L13.5915 13.0498L13.5824 12.987L13.5919 12.9128L13.6228 12.6686L13.74 12.3348L13.9227 12.0183L14.1526 11.7505L14.2116 11.706L14.2722 11.6597L14.3489 11.6016L14.4079 11.5574L14.6629 11.458L14.719 11.4588L14.8927 11.4617L15.0755 11.5686L15.1927 11.7679L15.2021 11.8306L15.224 11.9775L15.2331 12.0402L15.1927 12.3587Z" fill="url(#paint3_linear_4_548)"/>
<path d="M7.3107 16.826L7.5409 17.0937L7.7959 17.2872L8.0509 17.3866L8.28106 17.3825L8.46386 17.276L8.54802 17.1328L8.4919 17.1336L8.49182 17.1336L8.54782 17.1327L8.58122 17.0767L8.6217 16.8044L8.58122 16.4854L8.46362 16.1517L8.2813 15.8356L8.05102 15.5679L7.7961 15.3747L7.5411 15.2749L7.48498 15.2761L7.4651 15.3095L7.48474 15.2759L7.31062 15.2788L7.12826 15.3857L7.0107 15.585L6.9707 15.8573L7.01074 16.1762L7.12834 16.5099L7.3107 16.826Z" fill="url(#paint4_linear_4_548)"/>
<path d="M5.5259 13.4194L5.59274 13.4698L5.72026 13.5197L5.84814 13.5692L6.07794 13.5655L6.26074 13.4586L6.3449 13.3154L6.3779 13.2594L6.41834 12.987L6.40882 12.9128L6.3981 12.8278L6.3779 12.6686L6.26074 12.3347L6.07794 12.0182L5.84814 11.7505L5.7285 11.6597L5.59274 11.5574L5.46526 11.5075L5.33778 11.458L5.28162 11.4588L5.10754 11.4617L4.92518 11.5686L4.80758 11.7678L4.76758 12.0402L4.78778 12.1994L4.80802 12.3586L4.92518 12.6925L5.10754 13.0089L5.33778 13.2767L5.5259 13.4194Z" fill="url(#paint5_linear_4_548)"/>
<path d="M11.1536 2.24601L11.0409 2.04673L10.826 1.87717L10.5306 1.75421L10.1832 1.68945H9.8181L9.47066 1.75417L9.1753 1.87713L8.96074 2.04669L8.84766 2.24597V2.45557L8.9331 2.60613L8.93306 2.60621L8.9607 2.65489L9.17522 2.82405L9.28786 2.87109L9.47062 2.94741L9.81806 3.01221L10.1832 3.01217L10.5306 2.94737L10.7134 2.87105L10.826 2.82405L11.0409 2.65485L11.0686 2.60617L11.1536 2.45561V2.24601Z" fill="url(#paint6_linear_4_548)"/>
<path d="M10.1819 8.06867L10.5293 8.00387L10.7121 7.92755L10.8247 7.88091L11.0396 7.71139L11.067 7.66311L11.0707 7.66947L11.1551 7.51731L11.1537 7.30615L11.0399 7.10483L10.8242 6.93415L10.5282 6.80959L10.1806 6.74463L9.81597 6.74467L9.46921 6.81019L9.17441 6.93427L8.96097 7.10535L8.84961 7.30663L8.85045 7.51799L8.93217 7.66207L8.93181 7.66267L8.95949 7.71139L9.17401 7.88095L9.28665 7.92755L9.46937 8.00387L9.81681 8.06867H10.1819Z" fill="url(#paint7_linear_4_548)"/>
<path d="M6.63237 4.57509L6.41781 4.40549L6.14465 4.29161L6.12241 4.28257L5.77501 4.21777H5.40985L5.06245 4.28257L4.76705 4.40549L4.55209 4.57509L4.43945 4.77437V4.98393L4.52445 5.13457L4.55209 5.18321L4.56817 5.19601L4.76705 5.35237L5.06245 5.47577L5.09877 5.48233L5.40985 5.54053H5.77501L6.12241 5.47577L6.41781 5.35237L6.63237 5.18321L6.66001 5.13457L6.74537 4.98393V4.77437L6.64433 4.59609L6.63237 4.57509Z" fill="url(#paint8_linear_4_548)"/>
<path d="M15.5598 4.98393V4.77433L15.4471 4.57505L15.2322 4.40549L14.9368 4.28253L14.5894 4.21777H14.2243L13.8769 4.28249L13.5815 4.40545L13.367 4.57501L13.2539 4.77429V4.98389L13.3393 5.13445L13.367 5.08577L13.5815 4.91621L13.6184 4.90089L13.5815 4.91629L13.367 5.08585L13.3393 5.13457L13.367 5.18321L13.5815 5.35237L13.8769 5.47577L14.2243 5.54053H14.5895L14.9369 5.47577L15.2323 5.35237L15.4472 5.18321L15.4745 5.13457L15.4486 5.08833L15.4748 5.13449L15.5598 4.98393Z" fill="url(#paint9_linear_4_548)"/>
<path d="M2.7201 8.87546L2.90286 9.19154L3.13266 9.4593L3.38806 9.65238L3.40954 9.66106L3.64306 9.75222L3.87326 9.74811L4.05562 9.64126L4.13982 9.4985L4.17282 9.44202L4.21326 9.16966L4.17282 8.85118L4.1229 8.70878L4.05562 8.51735L3.87326 8.2009L3.76022 8.0697L3.64306 7.93314L3.40954 7.75654L3.38806 7.74006L3.13266 7.64062L3.07654 7.64142L2.90286 7.6443L2.7201 7.75118L2.6029 7.95046L2.5625 8.22279L2.6029 8.54131L2.7201 8.87546Z" fill="url(#paint10_linear_4_548)"/>
<path d="M2.90242 12.7505L2.72006 12.8573L2.60254 13.0566L2.5625 13.3289L2.60254 13.6478L2.72014 13.9816L2.90254 14.2976L3.13274 14.5654L3.38774 14.7589L3.6427 14.8583L3.8729 14.8541L4.0557 14.7477L4.13978 14.6045L4.17282 14.5484L4.21326 14.2761L4.2009 14.1787L4.17282 13.9572L4.05566 13.6233L3.8729 13.3073L3.64266 13.0395L3.50446 12.9347L3.38766 12.8461L3.1327 12.7466L3.07658 12.7478L3.0481 12.7963L3.07654 12.7476L2.90242 12.7505Z" fill="url(#paint11_linear_4_548)"/>
<path d="M6.9707 10.7514L6.99378 10.9341L7.0111 11.0699L7.12826 11.4037L7.31106 11.7201L7.5413 11.9879L7.74798 12.1447L7.7963 12.181L8.05122 12.2804L8.2815 12.2767L8.46382 12.1699L8.54794 12.0268H8.54818L8.58118 11.9703L8.62162 11.698L8.61506 11.6472L8.58122 11.3795L8.46406 11.0457L8.28134 10.7292L8.05114 10.4615L7.95046 10.3851L7.79614 10.2684L7.54122 10.1689L7.4851 10.1698L7.48494 10.17L7.31106 10.1729L7.12826 10.2797L7.0111 10.479L6.9707 10.7514Z" fill="url(#paint12_linear_4_548)"/>
<path d="M15.1924 11.7678L15.0752 11.5686L14.8924 11.4617L14.7187 11.4588L14.6626 11.458L14.4076 11.5574L14.3486 11.6016L14.2719 11.6597L14.2112 11.706L14.1522 11.7505L13.9224 12.0182L13.7396 12.3347L13.6224 12.6686L13.5915 12.9128L13.582 12.987L13.5911 13.0498L13.613 13.1966L13.6224 13.2594L13.6555 13.3154L13.7396 13.4586L13.9224 13.5655L14.1522 13.5692L14.4076 13.4698L14.4662 13.4252L14.604 13.3212L14.6626 13.2767L14.8924 13.0089L15.0752 12.6925L15.1924 12.3586L15.2328 12.0402L15.2237 11.9774L15.2018 11.8306L15.1924 11.7678Z" fill="url(#paint13_linear_4_548)"/>
<defs>
<linearGradient id="paint0_linear_4_548" x1="0.510877" y1="9.57931" x2="10.676" y2="15.4481" gradientUnits="userSpaceOnUse">
<stop stop-color="#FD4AC4"/>
<stop offset="1" stop-color="#E02475"/>
</linearGradient>
<linearGradient id="paint1_linear_4_548" x1="3.30855" y1="4.8791" x2="16.6917" y2="4.8791" gradientUnits="userSpaceOnUse">
<stop stop-color="#FE4AD7"/>
<stop offset="1" stop-color="#FF2B95"/>
</linearGradient>
<linearGradient id="paint2_linear_4_548" x1="2.17913" y1="5.47" x2="17.8209" y2="14.5008" gradientUnits="userSpaceOnUse">
<stop stop-color="#FF4A92"/>
<stop offset="0.194" stop-color="#F74A8F"/>
<stop offset="0.55" stop-color="#E32879"/>
<stop offset="0.821" stop-color="#D10A60"/>
</linearGradient>
<linearGradient id="paint3_linear_4_548" x1="11.0511" y1="10.5757" x2="17.7645" y2="14.4517" gradientUnits="userSpaceOnUse">
<stop offset="0.005" stop-color="#D60995"/>
<stop offset="1" stop-color="#B80780"/>
</linearGradient>
<linearGradient id="paint4_linear_4_548" x1="8.20998" y1="15.6137" x2="7.38182" y2="17.0481" gradientUnits="userSpaceOnUse">
<stop stop-color="#D9C5C8"/>
<stop offset="1" stop-color="white"/>
</linearGradient>
<linearGradient id="paint5_linear_4_548" x1="6.00678" y1="11.7965" x2="5.1787" y2="13.2307" gradientUnits="userSpaceOnUse">
<stop stop-color="#D9C5C8"/>
<stop offset="1" stop-color="white"/>
</linearGradient>
<linearGradient id="paint6_linear_4_548" x1="10.0006" y1="3.01221" x2="10.0006" y2="1.68945" gradientUnits="userSpaceOnUse">
<stop stop-color="#D9C5C8"/>
<stop offset="1" stop-color="white"/>
</linearGradient>
<linearGradient id="paint7_linear_4_548" x1="10.0024" y1="8.06867" x2="10.0024" y2="6.74463" gradientUnits="userSpaceOnUse">
<stop stop-color="#D9C5C8"/>
<stop offset="1" stop-color="white"/>
</linearGradient>
<linearGradient id="paint8_linear_4_548" x1="5.59241" y1="5.54053" x2="5.59241" y2="4.21777" gradientUnits="userSpaceOnUse">
<stop stop-color="#D9C5C8"/>
<stop offset="1" stop-color="white"/>
</linearGradient>
<linearGradient id="paint9_linear_4_548" x1="14.4069" y1="5.54053" x2="14.4069" y2="4.21777" gradientUnits="userSpaceOnUse">
<stop stop-color="#D9C5C8"/>
<stop offset="1" stop-color="white"/>
</linearGradient>
<linearGradient id="paint10_linear_4_548" x1="3.80194" y1="7.97898" x2="2.9739" y2="9.41327" gradientUnits="userSpaceOnUse">
<stop stop-color="#D9C5C8"/>
<stop offset="1" stop-color="white"/>
</linearGradient>
<linearGradient id="paint11_linear_4_548" x1="3.80186" y1="13.0852" x2="2.97358" y2="14.5197" gradientUnits="userSpaceOnUse">
<stop stop-color="#D9C5C8"/>
<stop offset="1" stop-color="white"/>
</linearGradient>
<linearGradient id="paint12_linear_4_548" x1="8.21022" y1="10.5074" x2="7.3821" y2="11.9419" gradientUnits="userSpaceOnUse">
<stop stop-color="#D9C5C8"/>
<stop offset="1" stop-color="white"/>
</linearGradient>
<linearGradient id="paint13_linear_4_548" x1="13.8291" y1="12.1797" x2="14.9857" y2="12.8475" gradientUnits="userSpaceOnUse">
<stop stop-color="#D9C5C8"/>
<stop offset="1" stop-color="white"/>
</linearGradient>
</defs>
</svg>
