<svg width="20" height="20" viewBox="0 0 20 20" fill="none" xmlns="http://www.w3.org/2000/svg">
<path d="M15.0133 7.8732V5.5132C15.0133 2.75 12.7667 0.5 9.99992 0.5C7.23672 0.5 4.98672 2.75 4.98672 5.5134V7.8734C3.82992 7.97 2.91992 8.9464 2.91992 10.1264V12.94C2.91992 16.5566 5.85992 19.5 9.47652 19.5H10.5233C14.1399 19.5 17.0799 16.5566 17.0799 12.94V10.1266C17.0799 8.9466 16.1701 7.97 15.0133 7.8732ZM7.15672 5.5132C7.31252 1.7458 12.6875 1.7468 12.8433 5.5132V7.8634H7.15672V5.5132ZM9.20672 13.9434C8.03672 13.1802 8.60752 11.3144 10.0001 11.3268C11.3925 11.315 11.9641 13.1792 10.7933 13.9434C10.7033 14.0034 10.6467 14.1102 10.6467 14.2202V15.3902C10.6251 16.2418 9.37592 16.2436 9.35332 15.3902V14.22C9.35332 14.11 9.29672 14.0034 9.20672 13.9434Z" fill="#FF9E20"/>
</svg>
