<svg width="32" height="32" viewBox="0 0 32 32" fill="none" xmlns="http://www.w3.org/2000/svg">
<path d="M16 4C13.6266 4 11.3065 4.70379 9.33314 6.02236C7.35976 7.34093 5.8217 9.21506 4.91345 11.4078C4.0052 13.6005 3.76756 16.0133 4.23058 18.341C4.6936 20.6688 5.83649 22.807 7.51471 24.4852C9.19293 26.1634 11.3311 27.3063 13.6589 27.7693C15.9866 28.2323 18.3994 27.9947 20.5921 27.0865C22.7848 26.1782 24.659 24.6401 25.9776 22.6668C27.2961 20.6934 27.9999 18.3733 27.9999 16C27.9963 12.8185 26.7309 9.76833 24.4812 7.51868C22.2316 5.26903 19.1814 4.0036 16 4ZM16 23.1999C14.8313 23.2024 13.6797 22.9204 12.6445 22.3783C11.6092 21.8361 10.7215 21.0502 10.0579 20.0882C9.39437 19.1263 8.97494 18.0173 8.83584 16.857C8.69675 15.6967 8.84217 14.5199 9.25956 13.4284C9.67694 12.3369 10.3537 11.3633 11.2315 10.5919C12.1093 9.82041 13.1617 9.27419 14.2977 9.0004C15.4338 8.7266 16.6195 8.73345 17.7523 9.02036C18.8852 9.30727 19.9311 9.86561 20.7999 10.6472V10.4C20.7999 10.1878 20.8842 9.98432 21.0342 9.83429C21.1843 9.68426 21.3878 9.59998 21.5999 9.59998C21.8121 9.59998 22.0156 9.68426 22.1656 9.83429C22.3156 9.98432 22.3999 10.1878 22.3999 10.4V12.8C22.3999 13.0121 22.3156 13.2156 22.1656 13.3656C22.0156 13.5157 21.8121 13.6 21.5999 13.6H19.1999C18.9878 13.6 18.7843 13.5157 18.6343 13.3656C18.4842 13.2156 18.3999 13.0121 18.3999 12.8C18.3999 12.5878 18.4842 12.3843 18.6343 12.2343C18.7843 12.0843 18.9878 12 19.1999 12H19.9199C18.9964 11.0948 17.7881 10.5371 16.5002 10.4216C15.2122 10.3061 13.9239 10.6399 12.8541 11.3663C11.7843 12.0927 10.9988 13.167 10.6311 14.4068C10.2634 15.6466 10.3361 16.9754 10.8369 18.1676C11.3376 19.3599 12.2356 20.3421 13.3782 20.9475C14.5209 21.5529 15.8379 21.7442 17.1056 21.4889C18.3733 21.2336 19.5136 20.5474 20.3328 19.5469C21.152 18.5463 21.5997 17.2931 21.5999 16C21.5999 15.7878 21.6842 15.5843 21.8342 15.4343C21.9843 15.2842 22.1878 15.2 22.3999 15.2C22.6121 15.2 22.8156 15.2842 22.9656 15.4343C23.1156 15.5843 23.1999 15.7878 23.1999 16C23.1978 17.9089 22.4386 19.739 21.0888 21.0888C19.739 22.4386 17.9089 23.1978 16 23.1999ZM18.1655 17.0343C18.242 17.1081 18.3029 17.1964 18.3448 17.294C18.3868 17.3916 18.4088 17.4966 18.4097 17.6028C18.4107 17.709 18.3904 17.8144 18.3502 17.9127C18.31 18.011 18.2506 18.1003 18.1755 18.1755C18.1003 18.2506 18.011 18.31 17.9127 18.3502C17.8144 18.3904 17.7091 18.4107 17.6028 18.4097C17.4966 18.4088 17.3916 18.3867 17.294 18.3448C17.1964 18.3029 17.1081 18.2419 17.0344 18.1655L15.4344 16.5655C15.2843 16.4156 15.2 16.2121 15.2 16V12.8C15.2 12.5878 15.2842 12.3843 15.4343 12.2343C15.5843 12.0843 15.7878 12 16 12C16.2121 12 16.4156 12.0843 16.5656 12.2343C16.7157 12.3843 16.8 12.5878 16.8 12.8V15.6688L18.1655 17.0343Z" fill="#14C92F"/>
</svg>
