<svg width="32" height="32" viewBox="0 0 32 32" fill="none" xmlns="http://www.w3.org/2000/svg">
<path d="M26.5097 23.9218C26.5097 23.9198 26.5077 23.9158 26.5077 23.9138C26.5077 23.9119 26.1535 22.1229 25.8012 20.4765C25.3424 18.3354 25.1109 16.1518 25.1106 13.962V12.9211C25.1829 8.067 21.3064 4.07326 16.4523 4.001C11.5981 3.92868 7.6044 7.80513 7.53209 12.6593C7.5308 12.7472 7.5308 12.8352 7.53214 12.9231C7.53386 16.2179 6.97442 19.489 5.87781 22.5959L5.61857 23.338L5.61461 23.344C5.01819 25.1232 5.97703 27.049 7.75626 27.6454C9.1431 28.1103 10.6718 27.6355 11.5512 26.4667C12.7942 28.1464 15.1635 28.5006 16.8433 27.2577C17.0704 27.0896 17.278 26.8966 17.4622 26.6824C18.4615 27.6041 19.9182 27.8315 21.1509 27.2582C21.5239 27.5327 21.949 27.7283 22.4001 27.8331C22.8513 27.9379 23.319 27.9496 23.7749 27.8677C25.6172 27.5352 26.8441 25.7641 26.5097 23.9218ZM15.0994 12.7352C14.8184 14.1976 13.8804 15.2484 13.0018 15.0801C12.1232 14.9119 11.6383 13.5901 11.9193 12.1257C12.2003 10.6613 13.1383 9.61245 14.015 9.77868C14.8917 9.94491 15.3784 11.2707 15.0994 12.7352ZM16.5836 17.5695C16.0809 17.5695 15.6733 16.9759 15.6733 16.2417C15.6733 15.5076 16.081 14.9159 16.5836 14.9159C17.0862 14.9159 17.4919 15.5096 17.4919 16.2417C17.4919 16.9739 17.0862 17.5695 16.5836 17.5695ZM20.1732 15.0801C19.2946 15.2483 18.3547 14.1975 18.0756 12.7351C17.7966 11.2727 18.2795 9.94684 19.1581 9.77863C20.0367 9.61041 20.9767 10.6612 21.2557 12.1256C21.5347 13.59 21.0519 14.9119 20.1732 15.0801Z" fill="#380989"/>
</svg>
