<svg width="32" height="32" viewBox="0 0 32 32" fill="none" xmlns="http://www.w3.org/2000/svg">
<path d="M26.656 10.4665L26.578 10.501C24.829 11.2795 23.0125 11.845 21.1495 12.217C21.6758 14.7142 21.6747 17.2937 21.1465 19.7905C23.0095 20.161 24.835 20.722 26.5765 21.4975L26.653 21.532C27.5095 19.8745 28 17.9965 28 16C28 14.0035 27.5095 12.1255 26.656 10.4665ZM12.724 21.0235C13.387 23.134 14.4805 25.1335 15.9985 26.9005C17.5165 25.1335 18.6115 23.134 19.273 21.0235C17.0995 20.7355 14.8975 20.737 12.724 21.0235ZM19.663 12.451C18.457 12.6205 17.239 12.736 16 12.736C14.7595 12.736 13.5415 12.619 12.3355 12.451C11.83 14.794 11.83 17.218 12.3385 19.561C14.7673 19.2235 17.2312 19.2235 19.66 19.561C20.1687 17.2184 20.1698 14.794 19.663 12.451ZM15.9985 5.0995C14.4805 6.8665 13.387 8.866 12.724 10.978C14.8976 11.2645 17.0994 11.2645 19.273 10.978C18.61 8.8675 17.5165 6.8665 15.9985 5.0995ZM17.0335 4C18.7945 6.016 20.0485 8.3155 20.7775 10.744C22.5265 10.402 24.2395 9.8815 25.8745 9.16C23.8945 6.2815 20.6995 4.315 17.0335 4ZM6.124 9.16C7.7605 9.88 9.4735 10.402 11.221 10.744C11.95 8.3155 13.204 6.016 14.965 4C11.299 4.315 8.1055 6.2815 6.124 9.16ZM10.8505 12.2185C8.9875 11.845 7.1725 11.281 5.425 10.5025L5.347 10.468C4.4905 12.1255 4 14.0035 4 16C4 17.9965 4.4905 19.8745 5.347 21.5335L5.425 21.499C7.165 20.722 8.9905 20.161 10.8535 19.792C10.324 17.296 10.324 14.716 10.8505 12.2185ZM11.221 21.2575C9.472 21.598 7.759 22.12 6.124 22.84C8.1055 25.7185 11.299 27.685 14.965 28C13.204 25.984 11.95 23.6845 11.221 21.2575ZM20.7775 21.256C20.05 23.6845 18.7945 25.984 17.0335 28C20.6995 27.685 23.8945 25.7185 25.8745 22.84C24.2395 22.1185 22.5265 21.598 20.7775 21.256Z" fill="#026CE5"/>
</svg>
