<svg width="32" height="32" viewBox="0 0 32 32" fill="none" xmlns="http://www.w3.org/2000/svg">
<path d="M25.2528 7.16382C23.7366 7.0024 22.2444 6.66503 20.8063 6.1585C19.4866 5.69212 18.2208 5.08554 17.0305 4.34917C16.7199 4.1607 16.3636 4.06104 16.0003 4.06104C15.637 4.06104 15.2806 4.1607 14.9701 4.34917L14.9689 4.3503C13.7789 5.08608 12.5134 5.69227 11.1942 6.1585C9.75681 6.66482 8.26539 7.00219 6.75002 7.16382C6.26324 7.21339 5.81218 7.44185 5.48419 7.80494C5.15619 8.16803 4.97461 8.63991 4.97461 9.12921V15.0039C4.97543 17.1717 5.55561 19.2999 6.65509 21.1683C7.75457 23.0366 9.33339 24.5771 11.2281 25.6304L15.0391 27.7484C15.3325 27.9135 15.6636 28.0002 16.0003 28.0002C16.337 28.0002 16.668 27.9135 16.9615 27.7484L20.7724 25.6304C22.6671 24.5771 24.246 23.0366 25.3454 21.1683C26.4449 19.2999 27.0251 17.1717 27.0259 15.0039V9.13034C27.0265 8.64101 26.8455 8.16886 26.5179 7.80534C26.1904 7.44183 25.7395 7.21396 25.2528 7.16382ZM20.4999 13.9511L16.2592 18.4744C16.0578 18.6893 15.7803 18.8171 15.4861 18.8304C15.1918 18.8437 14.904 18.7415 14.684 18.5457L12.1396 16.284C12.023 16.1871 11.927 16.0677 11.8575 15.9329C11.788 15.7981 11.7463 15.6507 11.7349 15.4995C11.7235 15.3483 11.7426 15.1963 11.7911 15.0526C11.8396 14.9089 11.9165 14.7765 12.0173 14.6631C12.118 14.5498 12.2406 14.4579 12.3776 14.3928C12.5146 14.3278 12.6633 14.291 12.8148 14.2846C12.9663 14.2782 13.1176 14.3023 13.2596 14.3556C13.4015 14.4088 13.5314 14.4901 13.6413 14.5945L15.3636 16.1246L18.8511 12.4041C18.9569 12.2915 19.0846 12.2018 19.2264 12.1403C19.3682 12.0789 19.521 12.047 19.6755 12.0468C19.8961 12.0467 20.1119 12.1111 20.2964 12.2321C20.4808 12.3531 20.6259 12.5254 20.7136 12.7278C20.8014 12.9302 20.828 13.1539 20.7902 13.3713C20.7524 13.5886 20.6508 13.7902 20.4999 13.9511Z" fill="#03C567"/>
</svg>
