<svg width="32" height="32" viewBox="0 0 32 32" fill="none" xmlns="http://www.w3.org/2000/svg">
<path d="M23.773 10.7703L19.6154 10.1661L17.7561 6.39875C17.0382 4.94394 14.9615 4.9434 14.2433 6.3987L12.384 10.1661L8.22636 10.7703C6.62094 11.0035 5.97882 12.9783 7.14088 14.1111L10.1494 17.0436L9.43917 21.1844C9.16491 22.7832 10.8444 24.0042 12.2811 23.2492L15.9997 21.2941L19.7184 23.2492C21.1567 24.0052 22.8339 22.7796 22.5602 21.1844L21.85 17.0436L24.8585 14.1111C26.0201 12.9786 25.3791 11.0037 23.773 10.7703ZM10.035 5.72776L9.03108 4.34604C8.75854 3.97105 8.23359 3.88788 7.8586 4.16041C7.48356 4.4329 7.40043 4.95786 7.67292 5.3329L8.67685 6.71462C8.94953 7.08981 9.47454 7.17269 9.84933 6.90025C10.2244 6.62781 10.3075 6.1028 10.035 5.72776ZM6.70347 18.1105C6.56019 17.6697 6.08673 17.4282 5.64574 17.5716L3.98843 18.1101C3.54753 18.2533 3.30627 18.7269 3.4495 19.1679C3.59303 19.6096 4.06747 19.8499 4.50724 19.7068L6.16459 19.1683C6.60549 19.0251 6.84675 18.5515 6.70347 18.1105ZM24.1408 4.16041C23.7658 3.88788 23.2409 3.971 22.9684 4.34604L21.9644 5.72776C21.6919 6.1028 21.7751 6.62781 22.1501 6.90025C22.5253 7.17283 23.0501 7.08951 23.3226 6.71462L24.3265 5.3329C24.5991 4.95786 24.5159 4.4329 24.1408 4.16041ZM28.011 18.1101L26.3536 17.5716C25.9127 17.4281 25.4392 17.6696 25.2959 18.1105C25.1526 18.5514 25.3939 19.025 25.8348 19.1683L27.4922 19.7068C27.9322 19.8499 28.4065 19.6094 28.5499 19.1679C28.6932 18.727 28.4519 18.2534 28.011 18.1101ZM15.9997 24.6177C15.5361 24.6177 15.1603 24.9935 15.1603 25.4571V27.1608C15.1603 27.6243 15.5361 28.0002 15.9997 28.0002C16.4633 28.0002 16.8391 27.6243 16.8391 27.1608V25.4571C16.8391 24.9935 16.4633 24.6177 15.9997 24.6177Z" fill="#F97720"/>
</svg>
