<svg width="32" height="32" viewBox="0 0 32 32" fill="none" xmlns="http://www.w3.org/2000/svg">
<path d="M28.113 11.2968L22.2275 4.80657C21.7419 4.27105 21.2493 3.99951 20.7635 3.99951C20.0965 3.99951 19.3177 4.55894 19.3177 6.13564V8.34519C15.0417 8.55071 11.0485 10.4845 8.00287 13.8429C4.77704 17.4 3.0003 22.1294 3 27.16C3.00001 27.3362 3.05028 27.508 3.1437 27.6509C3.23711 27.7939 3.36895 27.9009 3.52054 27.9567C3.67213 28.0125 3.83579 28.0143 3.98836 27.9619C4.14093 27.9094 4.27469 27.8054 4.37069 27.6645C7.96696 22.3857 13.3813 19.2661 19.3177 19.0198V21.1954C19.3177 22.772 20.0965 23.3315 20.7635 23.3315H20.7636C21.2494 23.3315 21.7419 23.06 22.2275 22.5245L28.113 16.0342C28.685 15.4036 29 14.5624 29 13.6655C29 12.7688 28.685 11.9275 28.113 11.2968Z" fill="#2851CD"/>
</svg>
