<svg width="32" height="32" viewBox="0 0 32 32" fill="none" xmlns="http://www.w3.org/2000/svg">
<path fill-rule="evenodd" clip-rule="evenodd" d="M4 16.0002C4 10.3431 4 7.5145 5.7569 5.75641C7.51619 3.99951 10.3435 3.99951 16.0007 3.99951C21.6578 3.99951 24.4863 3.99951 26.2444 5.75641C28.0013 7.5157 28.0013 10.3431 28.0013 16.0002C28.0013 21.6573 28.0013 24.4858 26.2444 26.2439C24.4851 28.0008 21.6566 28.0008 16.0007 28.0008C10.3435 28.0008 7.51499 28.0008 5.7569 26.2439C4 24.4846 4 21.6561 4 16.0002ZM16.6007 9.99984C16.6007 9.76113 16.6955 9.5322 16.8643 9.36341C17.0331 9.19461 17.262 9.09979 17.5007 9.09979H22.001C22.2397 9.09979 22.4686 9.19461 22.6374 9.36341C22.8062 9.5322 22.901 9.76113 22.901 9.99984V14.5001C22.901 14.7388 22.8062 14.9677 22.6374 15.1365C22.4686 15.3053 22.2397 15.4001 22.001 15.4001C21.7623 15.4001 21.5333 15.3053 21.3645 15.1365C21.1958 14.9677 21.1009 14.7388 21.1009 14.5001V12.172L12.1724 21.1004H14.5006C14.7393 21.1004 14.9682 21.1953 15.137 21.3641C15.3058 21.5328 15.4006 21.7618 15.4006 22.0005C15.4006 22.2392 15.3058 22.4681 15.137 22.6369C14.9682 22.8057 14.7393 22.9005 14.5006 22.9005H10.0003C9.76162 22.9005 9.53269 22.8057 9.36389 22.6369C9.1951 22.4681 9.10028 22.2392 9.10028 22.0005V17.5002C9.10028 17.2615 9.1951 17.0326 9.36389 16.8638C9.53269 16.695 9.76162 16.6002 10.0003 16.6002C10.239 16.6002 10.468 16.695 10.6368 16.8638C10.8055 17.0326 10.9004 17.2615 10.9004 17.5002V19.8284L19.8289 10.8999H17.5007C17.3825 10.8999 17.2655 10.8766 17.1563 10.8314C17.0471 10.7861 16.9479 10.7198 16.8643 10.6363C16.7807 10.5527 16.7144 10.4535 16.6692 10.3443C16.624 10.2351 16.6007 10.118 16.6007 9.99984Z" fill="#F9B814"/>
</svg>
