<svg width="32" height="32" viewBox="0 0 32 32" fill="none" xmlns="http://www.w3.org/2000/svg">
<path d="M24.3281 4C22.4036 4 20.8416 5.60474 20.8416 7.58867C20.8387 8.13471 20.9595 8.67771 21.1953 9.16914C21.5755 9.96696 22.2268 10.5949 23.0284 10.9316L23.0225 10.9165C23.4381 11.0894 23.8802 11.1804 24.3281 11.1773C26.2556 11.1773 27.8176 9.56957 27.8176 7.58867C27.8176 5.60474 26.2556 4 24.3281 4ZM6.35386 15.4391H2.79367C2.40169 15.4391 2.04213 15.1479 2.00382 14.7475C1.99325 14.6403 2.00468 14.5321 2.03737 14.4297C2.07006 14.3274 2.12328 14.2333 2.19359 14.1535C2.26389 14.0737 2.34971 14.01 2.44547 13.9665C2.54123 13.923 2.6448 13.9008 2.74946 13.9011H6.35386C6.56016 13.9011 6.74584 13.9861 6.88141 14.1256C7.01698 14.2652 7.0995 14.4563 7.0995 14.6686C7.0995 15.0933 6.76647 15.4391 6.35386 15.4391Z" fill="#5D1BC0"/>
<path d="M30.0004 13.9917C29.9857 14.4133 29.8059 14.8107 29.5024 15.0898L25.5178 18.8726C25.3586 19.0243 25.1258 19.0516 24.9401 18.9454L21.377 16.9251L19.9623 18.3751L22.1934 22.2338C22.3053 22.4219 22.2847 22.6585 22.1491 22.8284L18.4039 27.4417C18.2777 27.6004 18.1219 27.7316 17.9458 27.8274C17.7697 27.9233 17.5767 27.9819 17.3783 27.9999H17.3606C17.001 27.9999 16.6415 27.8877 16.3644 27.6511C16.0525 27.3866 15.8457 27.0135 15.7833 26.6025C15.7208 26.1916 15.807 25.7713 16.0255 25.4214L17.6759 22.7337L15.6836 20.3979L7.61159 26.2435C7.36108 26.4225 7.05752 26.5196 6.75101 26.5196C6.29714 26.5196 5.86686 26.3133 5.57508 25.9553C5.33361 25.6583 5.20981 25.2784 5.22839 24.8916C5.24696 24.5048 5.40654 24.1393 5.67529 23.8682L12.8428 16.4637L12.9136 16.3909L13.839 15.4384L16.5091 12.69L15.5218 11.4007C15.4689 11.3304 15.4025 11.2718 15.3268 11.2288C15.2512 11.1857 15.1678 11.1589 15.0817 11.1501C14.9957 11.1413 14.9088 11.1506 14.8263 11.1776C14.7439 11.2045 14.6677 11.2484 14.6023 11.3067L13.2466 12.5049C13.0907 12.6277 12.9127 12.7177 12.723 12.7696C12.5333 12.8216 12.3355 12.8346 12.1409 12.8078C11.9462 12.7811 11.7587 12.7151 11.5889 12.6137C11.419 12.5122 11.2703 12.3774 11.1512 12.2168C10.9413 11.9332 10.8334 11.5837 10.8458 11.2275C10.8581 10.8713 10.99 10.5305 11.2189 10.2632L15.51 5.789C15.7016 5.59182 16.014 5.59182 16.2056 5.789L20.3667 9.78719L22.4592 11.7984L24.9997 14.2344C25.2266 14.4497 25.5744 14.4558 25.8072 14.2495L27.4812 12.757C28.0706 12.2322 28.9545 12.2686 29.5086 12.8329L29.5469 12.8753C29.8416 13.1665 30.0034 13.573 30.0004 13.9917Z" fill="#5D1BC0"/>
<path d="M9.93461 17.5927L8.4345 19.1307H3.76616C3.35356 19.1307 3.01758 18.7879 3.01758 18.3632C3.01758 17.9385 3.35356 17.5927 3.76616 17.5927H9.93461ZM6.3361 21.2815L4.83599 22.8195H4.04614C3.63354 22.8195 3.29756 22.4767 3.29756 22.052C3.29756 21.6273 3.63354 21.2815 4.04614 21.2815H6.3361ZM13.5331 13.9009L12.033 15.4389H10.5918C10.1792 15.4389 9.8462 15.0931 9.8462 14.6684C9.8462 14.2437 10.1792 13.9009 10.5918 13.9009H13.5331Z" fill="#5D1BC0"/>
</svg>
